<svg width="256" height="256" viewBox="0 0 256 256" fill="none" xmlns="http://www.w3.org/2000/svg">
<circle cx="128" cy="128" r="96" stroke="#2395FF" stroke-opacity="0.29" stroke-width="2"/>
<circle cx="128" cy="128" r="127" stroke="#2395FF" stroke-opacity="0.13" stroke-width="2"/>
<mask id="path-3-inside-1" fill="white">
<path d="M127.53 125.059C123.985 125.059 121.108 128.205 121.108 132.09C121.413 153.257 118.93 173.662 113.696 194.067C112.966 196.915 114.272 203 119.883 203C122.687 203 125.264 200.973 126.061 197.867C129.682 183.831 134.367 161.126 133.95 132.09C133.952 128.208 131.079 125.059 127.53 125.059ZM127.3 101.114C110.908 101.094 99.4692 114.904 99.6966 130.73C99.8973 144.775 98.6932 158.829 96.119 172.493C95.3992 176.296 97.6362 180.02 101.107 180.802C104.599 181.584 107.976 179.144 108.695 175.341C111.462 160.666 112.755 145.581 112.54 130.511C112.431 122.908 117.871 115.133 127.11 115.177C135.488 115.314 142.403 122.601 142.528 131.428C142.734 145.505 141.776 159.649 139.689 173.483C139.109 177.31 141.479 180.931 144.977 181.563C150.32 182.539 152.151 177.14 152.357 175.771C154.572 161.114 155.584 146.12 155.372 131.208C155.137 114.86 142.544 101.36 127.3 101.114ZM97.6817 95.3193C94.9256 92.876 90.8932 93.3271 88.6482 96.3389C81.7927 105.567 78.1081 117.222 78.2794 129.151C78.4373 140.161 77.6185 151.203 75.8417 161.979C75.2156 165.802 77.5302 169.458 81.0221 170.149C86.4032 171.175 88.2655 165.811 88.4849 164.478C90.4088 152.806 91.2945 140.847 91.1233 128.932C90.9975 120.178 93.585 111.975 98.6156 105.21C100.85 102.198 100.432 97.7715 97.6817 95.3193ZM126.974 77.0586C122.85 76.9385 118.714 77.4804 114.724 78.5146C111.275 79.4111 109.14 83.1963 109.953 86.9785C110.772 90.7549 114.234 93.081 117.683 92.2021C120.64 91.4375 123.696 91.0976 126.781 91.1211C146.965 91.4521 163.635 109.139 163.943 130.549C164.101 141.646 163.6 152.847 162.45 163.839C162.048 167.697 164.577 171.187 168.098 171.626C172.572 172.197 174.924 168.146 175.211 165.441C176.427 153.787 176.953 142.058 176.787 130.329C176.369 101.398 154.024 77.498 126.974 77.0586ZM194.423 112.64C193.658 108.854 190.273 106.429 186.768 107.287C183.305 108.125 181.116 111.875 181.882 115.669C183.142 121.941 183.195 126.629 183.139 133.716C183.11 137.604 185.962 140.773 189.508 140.806H189.561C193.085 140.806 195.954 137.697 195.983 133.833C196.031 127.335 196.09 120.91 194.423 112.64ZM183.688 86.0615C170.656 65.7324 149.333 53.3779 126.645 53.0058C107.97 52.7597 90.6978 60.2978 77.8513 74.3691C65.4435 87.9717 58.7567 106.039 59.0349 125.261L59.0028 131.551C58.8985 135.433 61.6867 138.673 65.2321 138.784C65.2937 138.79 65.3606 138.79 65.4248 138.79C68.8819 138.79 71.737 135.772 71.8387 131.964L71.8815 125.038C71.6594 109.657 77.0084 95.1963 86.941 84.3154C97.3124 72.9482 111.382 66.834 126.457 67.0713C145.041 67.373 162.509 77.4892 173.182 94.1387C175.219 97.3203 179.219 98.0791 182.125 95.8555C185.026 93.623 185.727 89.2373 183.688 86.0615Z"/>
</mask>
<path d="M127.53 125.059C123.985 125.059 121.108 128.205 121.108 132.09C121.413 153.257 118.93 173.662 113.696 194.067C112.966 196.915 114.272 203 119.883 203C122.687 203 125.264 200.973 126.061 197.867C129.682 183.831 134.367 161.126 133.95 132.09C133.952 128.208 131.079 125.059 127.53 125.059ZM127.3 101.114C110.908 101.094 99.4692 114.904 99.6966 130.73C99.8973 144.775 98.6932 158.829 96.119 172.493C95.3992 176.296 97.6362 180.02 101.107 180.802C104.599 181.584 107.976 179.144 108.695 175.341C111.462 160.666 112.755 145.581 112.54 130.511C112.431 122.908 117.871 115.133 127.11 115.177C135.488 115.314 142.403 122.601 142.528 131.428C142.734 145.505 141.776 159.649 139.689 173.483C139.109 177.31 141.479 180.931 144.977 181.563C150.32 182.539 152.151 177.14 152.357 175.771C154.572 161.114 155.584 146.12 155.372 131.208C155.137 114.86 142.544 101.36 127.3 101.114ZM97.6817 95.3193C94.9256 92.876 90.8932 93.3271 88.6482 96.3389C81.7927 105.567 78.1081 117.222 78.2794 129.151C78.4373 140.161 77.6185 151.203 75.8417 161.979C75.2156 165.802 77.5302 169.458 81.0221 170.149C86.4032 171.175 88.2655 165.811 88.4849 164.478C90.4088 152.806 91.2945 140.847 91.1233 128.932C90.9975 120.178 93.585 111.975 98.6156 105.21C100.85 102.198 100.432 97.7715 97.6817 95.3193ZM126.974 77.0586C122.85 76.9385 118.714 77.4804 114.724 78.5146C111.275 79.4111 109.14 83.1963 109.953 86.9785C110.772 90.7549 114.234 93.081 117.683 92.2021C120.64 91.4375 123.696 91.0976 126.781 91.1211C146.965 91.4521 163.635 109.139 163.943 130.549C164.101 141.646 163.6 152.847 162.45 163.839C162.048 167.697 164.577 171.187 168.098 171.626C172.572 172.197 174.924 168.146 175.211 165.441C176.427 153.787 176.953 142.058 176.787 130.329C176.369 101.398 154.024 77.498 126.974 77.0586ZM194.423 112.64C193.658 108.854 190.273 106.429 186.768 107.287C183.305 108.125 181.116 111.875 181.882 115.669C183.142 121.941 183.195 126.629 183.139 133.716C183.11 137.604 185.962 140.773 189.508 140.806H189.561C193.085 140.806 195.954 137.697 195.983 133.833C196.031 127.335 196.09 120.91 194.423 112.64ZM183.688 86.0615C170.656 65.7324 149.333 53.3779 126.645 53.0058C107.97 52.7597 90.6978 60.2978 77.8513 74.3691C65.4435 87.9717 58.7567 106.039 59.0349 125.261L59.0028 131.551C58.8985 135.433 61.6867 138.673 65.2321 138.784C65.2937 138.79 65.3606 138.79 65.4248 138.79C68.8819 138.79 71.737 135.772 71.8387 131.964L71.8815 125.038C71.6594 109.657 77.0084 95.1963 86.941 84.3154C97.3124 72.9482 111.382 66.834 126.457 67.0713C145.041 67.373 162.509 77.4892 173.182 94.1387C175.219 97.3203 179.219 98.0791 182.125 95.8555C185.026 93.623 185.727 89.2373 183.688 86.0615Z" stroke="#2395FF" stroke-width="6" mask="url(#path-3-inside-1)"/>
</svg>
