<svg width="279" height="302" viewBox="0 0 279 302" fill="none" xmlns="http://www.w3.org/2000/svg">
<path fill-rule="evenodd" clip-rule="evenodd" d="M109.083 28.609C163.677 15.5462 192.906 70.2494 221.148 110.711C248 149.179 283.945 193.643 251.375 232.461C215.521 275.19 147.394 279.989 94.7458 261.355C48.5867 245.018 31.1623 200.607 33.9407 155.504C37.1017 104.19 52.0906 42.2457 109.083 28.609Z" fill="#2395FF" fill-opacity="0.24"/>
<path d="M80.8654 193.272C82.1803 195.224 84.0269 196.331 85.9594 196.328L113.291 196.277C115.448 196.273 117.574 195.577 119.496 194.245L180.415 152.104C186.014 148.231 191.032 142.702 194.447 135.461C198.281 127.333 198.697 121.45 197.184 117.295C195.674 113.136 192.004 110.082 184.988 109.46C178.738 108.907 172.522 111.15 166.923 115.02L146.298 129.288L100.509 105.867C99.9581 105.361 99.3185 105.065 98.6559 105.01C97.9933 104.954 97.3319 105.141 96.7399 105.55L82.9738 115.074C80.7398 116.618 80.1996 120.683 81.8913 123.217L114.599 151.216L92.9901 166.166L77.8421 155.757C77.3202 155.398 76.7438 155.212 76.1593 155.213C75.5749 155.214 74.9988 155.402 74.4775 155.763L66.0755 161.577C63.8896 163.089 63.3139 167.034 64.9093 169.591L80.8654 193.272Z" fill="#2395FF"/>
<path d="M73.9155 268.929C74.3767 269.613 75.0244 270.001 75.7022 270L85.2885 269.982C86.0451 269.981 86.7907 269.737 87.4652 269.27L108.832 254.504C110.796 253.147 112.556 251.21 113.754 248.673C115.098 245.825 115.245 243.764 114.714 242.308C114.184 240.851 112.897 239.781 110.436 239.563C108.244 239.369 106.064 240.155 104.1 241.511L96.8657 246.51L80.8053 238.304C80.6122 238.127 80.3878 238.023 80.1554 238.003C79.923 237.984 79.691 238.049 79.4834 238.193L74.655 241.53C73.8714 242.071 73.682 243.495 74.2753 244.383L85.7475 254.193L78.1682 259.432L72.8551 255.784C72.672 255.659 72.4698 255.593 72.2648 255.594C72.0598 255.594 71.8578 255.66 71.675 255.786L68.728 257.824C67.9613 258.354 67.7593 259.736 68.3189 260.632L73.9155 268.929Z" fill="#70BAFF"/>
<path d="M228.915 165.929C229.377 166.613 230.024 167.001 230.702 167L240.289 166.982C241.045 166.981 241.791 166.737 242.465 166.27L263.832 151.504C265.796 150.147 267.556 148.21 268.754 145.673C270.098 142.825 270.245 140.764 269.714 139.308C269.184 137.851 267.897 136.781 265.436 136.563C263.244 136.369 261.064 137.155 259.1 138.511L251.866 143.51L235.805 135.304C235.612 135.127 235.388 135.023 235.155 135.003C234.923 134.984 234.691 135.049 234.483 135.193L229.655 138.53C228.871 139.071 228.682 140.495 229.275 141.383L240.748 151.193L233.168 156.432L227.855 152.784C227.672 152.659 227.47 152.593 227.265 152.594C227.06 152.594 226.858 152.66 226.675 152.786L223.728 154.824C222.961 155.354 222.759 156.736 223.319 157.632L228.915 165.929Z" fill="#84C4FF"/>
<path d="M166.021 53.4645C166.256 53.8065 166.587 54.0005 166.933 54L171.828 53.991C172.215 53.9903 172.595 53.8683 172.94 53.635L183.85 46.2522C184.853 45.5737 185.752 44.6051 186.364 43.3366C187.05 41.9125 187.125 40.882 186.854 40.1539C186.583 39.4254 185.926 38.8904 184.669 38.7814C183.55 38.6844 182.437 39.0774 181.434 39.7554L177.74 42.255L169.539 38.1519C169.44 38.0633 169.326 38.0114 169.207 38.0017C169.088 37.9919 168.97 38.0246 168.864 38.0964L166.398 39.7649C165.998 40.0354 165.901 40.7475 166.204 41.1915L172.063 46.0967L168.192 48.7158L165.479 46.8922C165.386 46.8294 165.282 46.7967 165.178 46.7969C165.073 46.7971 164.97 46.8301 164.877 46.8932L163.372 47.9118C162.98 48.1768 162.877 48.8678 163.163 49.3158L166.021 53.4645Z" fill="#70BAFF"/>
</svg>
