<svg width="279" height="301" viewBox="0 0 279 301" fill="none" xmlns="http://www.w3.org/2000/svg">
<path fill-rule="evenodd" clip-rule="evenodd" d="M109.083 28.0003C163.677 14.9376 192.906 69.6408 221.148 110.102C248 148.571 283.945 193.035 251.375 231.852C215.521 274.582 147.394 279.381 94.7458 260.747C48.5867 244.41 31.1623 199.998 33.9407 154.895C37.1017 103.581 52.0906 41.6371 109.083 28.0003Z" fill="#41A4FF"/>
<path d="M80.8654 192.663C82.1803 194.615 84.0269 195.723 85.9594 195.72L113.291 195.668C115.448 195.664 117.574 194.968 119.496 193.636L180.415 151.495C186.014 147.622 191.032 142.094 194.447 134.853C198.281 126.724 198.697 120.842 197.184 116.686C195.674 112.528 192.004 109.474 184.988 108.852C178.738 108.298 172.522 110.541 166.923 114.411L146.298 128.679L100.509 105.258C99.9581 104.753 99.3185 104.457 98.6559 104.401C97.9933 104.345 97.3319 104.532 96.7399 104.941L82.9738 114.466C80.7398 116.01 80.1996 120.074 81.8913 122.608L114.599 150.607L92.9901 165.557L77.8421 155.148C77.3202 154.79 76.7438 154.603 76.1593 154.604C75.5749 154.605 74.9988 154.794 74.4775 155.154L66.0755 160.968C63.8896 162.481 63.3139 166.425 64.9093 168.982L80.8654 192.663Z" fill="white"/>
<path d="M73.9155 268.32C74.3767 269.004 75.0244 269.392 75.7022 269.391L85.2885 269.373C86.0451 269.372 86.7907 269.128 87.4652 268.661L108.832 253.896C110.796 252.539 112.556 250.602 113.754 248.065C115.098 245.216 115.245 243.155 114.714 241.699C114.184 240.242 112.897 239.172 110.436 238.954C108.244 238.76 106.064 239.546 104.1 240.902L96.8657 245.901L80.8053 237.695C80.6122 237.518 80.3878 237.414 80.1554 237.395C79.923 237.375 79.691 237.441 79.4834 237.584L74.655 240.921C73.8714 241.462 73.682 242.886 74.2753 243.774L85.7475 253.585L78.1682 258.823L72.8551 255.176C72.672 255.05 72.4698 254.985 72.2648 254.985C72.0598 254.986 71.8578 255.052 71.675 255.178L68.728 257.215C67.9613 257.745 67.7593 259.127 68.3189 260.023L73.9155 268.32Z" fill="#E7F3FF"/>
<path d="M228.915 165.32C229.377 166.004 230.024 166.392 230.702 166.391L240.289 166.373C241.045 166.372 241.791 166.128 242.465 165.661L263.832 150.896C265.796 149.539 267.556 147.602 268.754 145.065C270.098 142.216 270.245 140.155 269.714 138.699C269.184 137.242 267.897 136.172 265.436 135.954C263.244 135.76 261.064 136.546 259.1 137.902L251.866 142.901L235.805 134.695C235.612 134.518 235.388 134.414 235.155 134.395C234.923 134.375 234.691 134.441 234.483 134.584L229.655 137.921C228.871 138.462 228.682 139.886 229.275 140.774L240.748 150.585L233.168 155.823L227.855 152.176C227.672 152.05 227.47 151.985 227.265 151.985C227.06 151.986 226.858 152.052 226.675 152.178L223.728 154.215C222.961 154.745 222.759 156.127 223.319 157.023L228.915 165.32Z" fill="#9DD0FF"/>
<path d="M166.021 52.8559C166.256 53.1979 166.587 53.3919 166.933 53.3914L171.828 53.3824C172.215 53.3817 172.595 53.2598 172.94 53.0264L183.85 45.6436C184.853 44.9651 185.752 43.9965 186.364 42.728C187.05 41.3039 187.125 40.2734 186.854 39.5454C186.583 38.8168 185.926 38.2818 184.669 38.1728C183.55 38.0758 182.437 38.4688 181.434 39.1468L177.74 41.6464L169.539 37.5433C169.44 37.4547 169.326 37.4029 169.207 37.3931C169.088 37.3833 168.97 37.416 168.864 37.4878L166.398 39.1563C165.998 39.4269 165.901 40.1389 166.204 40.5829L172.063 45.4881L168.192 48.1072L165.479 46.2836C165.386 46.2208 165.282 46.1881 165.178 46.1883C165.073 46.1885 164.97 46.2215 164.877 46.2846L163.372 47.3032C162.98 47.5682 162.877 48.2592 163.163 48.7072L166.021 52.8559Z" fill="#C8E4FF"/>
</svg>
